# Blender 3.5.1
# www.blender.org
mtllib Frost_Tower.mtl
o Cylinder
v -0.399106 0.025964 -1.096536
v -0.342020 1.105674 -0.939693
v 0.493157 0.025964 -1.057579
v 0.422618 1.105674 -0.906308
v 1.096536 0.025964 -0.399106
v 0.939693 1.105674 -0.342020
v 1.057579 0.025964 0.493157
v 0.906308 1.105674 0.422618
v 0.399106 0.025964 1.096536
v 0.342020 1.105674 0.939693
v -0.493157 0.025964 1.057579
v -0.422618 1.105674 0.906308
v -1.096536 0.025964 0.399106
v -0.939693 1.105674 0.342020
v -1.057579 0.025964 -0.493157
v -0.906308 1.105674 -0.422618
v -0.917663 1.291983 -0.427913
v -0.951466 1.291983 0.346305
v -0.427913 1.291983 0.917663
v 0.346305 1.291983 0.951466
v 0.917663 1.291983 0.427913
v 0.951466 1.291983 -0.346305
v 0.427913 1.291983 -0.917663
v -0.346305 1.291983 -0.951466
v -0.392637 1.092838 -1.078761
v 0.485163 1.092838 -1.040435
v 1.078761 1.092838 -0.392637
v 1.040435 1.092838 0.485163
v 0.392637 1.092838 1.078761
v -0.485163 1.092838 1.040435
v -1.078761 1.092838 0.392637
v -1.040435 1.092838 -0.485163
v -0.392637 1.291983 -1.078761
v 0.485163 1.291983 -1.040435
v 1.078761 1.291983 -0.392637
v 1.040435 1.291983 0.485163
v 0.392637 1.291983 1.078761
v -0.485163 1.291983 1.040435
v -1.078761 1.291983 0.392637
v -1.040435 1.291983 -0.485163
v -0.735267 2.019288 -0.342861
v -0.762351 2.019288 0.277473
v -0.342861 2.019288 0.735267
v 0.277473 2.019288 0.762351
v 0.735267 2.019288 0.342861
v 0.762351 2.019288 -0.277473
v 0.342861 2.019288 -0.735267
v -0.277473 2.019288 -0.762351
v -0.830804 2.506956 -0.174749
v -0.842919 2.506956 0.102743
v 0.850022 2.048652 0.347871
v 0.877106 2.048652 -0.272463
v -0.347297 2.045286 0.836866
v 0.273037 2.045286 0.863950
v 0.102419 2.506956 0.844036
v -0.174961 2.506956 0.831847
v -0.848635 2.048297 -0.347810
v -0.875720 2.048297 0.272523
v 0.843460 2.506956 -0.101492
v 0.831345 2.506956 0.175999
v 0.349396 2.057592 -0.884957
v -0.270938 2.057592 -0.912042
v 0.175343 2.506956 -0.830670
v -0.102038 2.506956 -0.842859
v -0.180153 2.536030 0.945680
v 0.959677 2.539794 0.181602
v 0.971792 2.539794 -0.095889
v 0.097340 2.536030 0.957762
v -0.958127 2.539397 -0.180218
v -0.970243 2.539397 0.097273
v 0.182660 2.549792 -0.998071
v -0.094833 2.549792 -1.010153
v -0.958214 2.875951 -0.180186
v -0.970330 2.875951 0.097306
v 0.831258 2.843509 0.176032
v 0.959590 2.876348 0.181635
v 0.843373 2.843509 -0.101460
v 0.971705 2.876348 -0.095856
v -0.175049 2.843509 0.831879
v -0.180240 2.872583 0.945713
v 0.175256 2.843509 -0.830637
v -0.102125 2.843509 -0.842826
v 0.102332 2.843509 0.844068
v 0.097253 2.872583 0.957795
v -0.830891 2.843509 -0.174716
v -0.843006 2.843509 0.102775
v 0.182573 2.886345 -0.998038
v -0.094920 2.886345 -1.010120
v -0.800797 3.114890 -0.033924
v 0.793631 3.126786 0.035884
v -0.035625 3.119087 0.802996
v 0.032655 3.122987 -0.774894
vn 0.0432 0.1414 -0.9890
vn 0.7299 0.1414 -0.6688
vn 0.9890 0.1414 0.0432
vn 0.6688 0.1414 0.7299
vn -0.0432 0.1414 0.9890
vn -0.7299 0.1414 0.6688
vn 0.7143 0.2477 -0.6545
vn -0.9890 0.1414 -0.0432
vn -0.6688 0.1414 -0.7299
vn -0.0631 -0.9956 -0.0689
vn 0.0689 -0.9956 -0.0631
vn -0.0934 -0.9956 -0.0041
vn -0.0041 -0.9956 0.0934
vn 0.0631 -0.9956 0.0689
vn 0.0041 -0.9956 -0.0934
vn -0.0689 -0.9956 0.0631
vn 0.0934 -0.9956 0.0041
vn -0.6756 -0.0000 -0.7373
vn -0.0000 1.0000 -0.0000
vn 0.0436 -0.0000 -0.9990
vn 0.9990 -0.0000 0.0436
vn -0.7373 -0.0000 0.6756
vn 0.6756 -0.0000 0.7373
vn -0.9990 -0.0000 -0.0436
vn 0.7373 -0.0000 -0.6756
vn -0.0436 -0.0000 0.9990
vn 0.6545 0.2477 0.7143
vn -0.7143 0.2477 0.6545
vn -0.6545 0.2477 -0.7143
vn 0.9990 0.0003 0.0437
vn -0.0427 -0.2024 0.9784
vn 0.0430 0.1799 -0.9827
vn 0.2629 0.0779 -0.9617
vn 0.9671 0.2510 0.0422
vn -0.0420 0.2678 0.9626
vn -0.2618 0.0784 0.9619
vn -0.1770 0.0784 -0.9811
vn -0.9594 0.0735 -0.2723
vn -0.9666 0.2528 -0.0422
vn 0.9795 0.0735 -0.1876
vn 0.9299 0.3446 0.1288
vn 0.0427 0.2061 -0.9776
vn 0.1781 0.0779 0.9809
vn 0.9670 0.0890 0.2389
vn -0.9841 0.0890 0.1537
vn 0.9376 0.3445 -0.0467
vn -0.9990 -0.0003 -0.0436
vn 0.0435 0.0001 -0.9991
vn -0.0435 -0.0001 0.9991
vn 0.0472 0.3438 0.9379
vn -0.9374 0.3450 0.0477
vn -0.9829 0.1790 -0.0429
vn -0.1285 0.3436 0.9303
vn 0.0426 -0.2100 -0.9768
vn -0.9781 -0.2035 -0.0427
vn -0.0476 0.3461 -0.9370
vn -0.0430 0.1777 0.9831
vn 0.9831 0.1778 0.0429
vn -0.9294 0.3455 -0.1299
vn 0.9781 -0.2039 0.0427
vn 0.1285 0.3457 -0.9295
vn -0.0372 0.5170 0.8552
vn -0.9050 0.4198 0.0685
vn -0.8243 0.5651 -0.0360
vn 0.8233 0.5665 0.0359
vn -0.9991 -0.0003 -0.0431
vn 0.0436 0.0001 -0.9990
vn -0.9990 -0.0003 -0.0455
vn 0.9990 0.0003 0.0436
vn 0.0439 0.0001 -0.9990
vn 0.0429 0.0001 -0.9991
vn 0.9990 0.0003 0.0445
vn -0.0436 -0.0001 0.9990
vn -0.0429 -0.0001 0.9991
vn -0.0439 -0.0001 0.9990
vn -0.1472 0.4228 0.8942
vn 0.9903 -0.1322 0.0432
vn -0.9874 -0.1525 -0.0431
vn 0.8961 0.4379 -0.0719
vn -0.0694 0.4253 -0.9024
vn 0.1506 0.4420 -0.8843
vn -0.8883 0.4336 -0.1513
vn 0.0735 0.4395 0.8952
vn -0.0429 -0.2164 0.9754
vn 0.0312 0.6961 -0.7172
vn 0.0436 -0.1259 -0.9911
vn 0.8926 0.4259 0.1480
vt 0.832695 0.023077
vt 0.832695 0.023077
vt 0.181926 0.021539
vt 0.832695 0.023077
vt 0.832695 0.023077
vt 0.181926 0.021539
vt 0.832695 0.023077
vt 0.832695 0.023077
vt 0.181926 0.021539
vt 0.832695 0.023077
vt 0.832695 0.023077
vt 0.181926 0.021539
vt 0.832695 0.023077
vt 0.832695 0.023077
vt 0.181926 0.021539
vt 0.832695 0.023077
vt 0.832695 0.023077
vt 0.181926 0.021539
vt 0.832695 0.023077
vt 0.832695 0.023077
vt 0.181926 0.021539
vt 0.832695 0.023077
vt 0.832695 0.023077
vt 0.181926 0.021539
vt 0.177311 0.026154
vt 0.832695 0.023077
vt 0.563465 0.620000
vt 0.177311 0.026154
vt 0.832695 0.023077
vt 0.563465 0.620000
vt 0.177311 0.026154
vt 0.832695 0.023077
vt 0.563465 0.620000
vt 0.177311 0.026154
vt 0.832695 0.023077
vt 0.563465 0.620000
vt 0.177311 0.026154
vt 0.832695 0.023077
vt 0.563465 0.620000
vt 0.832695 0.023077
vt 0.177311 0.026154
vt 0.563465 0.620000
vt 0.832695 0.023077
vt 0.177311 0.026154
vt 0.563465 0.620000
vt 0.177311 0.026154
vt 0.832695 0.023077
vt 0.563465 0.620000
vt 0.181926 0.021539
vt 0.177311 0.026154
vt 0.561926 0.609231
vt 0.181926 0.021539
vt 0.561926 0.609231
vt 0.177311 0.026154
vt 0.181926 0.021539
vt 0.561926 0.609231
vt 0.177311 0.026154
vt 0.181926 0.021539
vt 0.561926 0.609231
vt 0.177311 0.026154
vt 0.181926 0.021539
vt 0.177311 0.026154
vt 0.561926 0.609231
vt 0.181926 0.021539
vt 0.177311 0.026154
vt 0.561926 0.609231
vt 0.181926 0.021539
vt 0.177311 0.026154
vt 0.561926 0.609231
vt 0.181926 0.021539
vt 0.177311 0.026154
vt 0.561926 0.609231
vt 0.561926 0.609231
vt 0.177311 0.026154
vt 0.563465 0.620000
vt 0.561926 0.609231
vt 0.177311 0.026154
vt 0.563465 0.620000
vt 0.561926 0.609231
vt 0.177311 0.026154
vt 0.563465 0.620000
vt 0.561926 0.609231
vt 0.177311 0.026154
vt 0.563465 0.620000
vt 0.561926 0.609231
vt 0.177311 0.026154
vt 0.563465 0.620000
vt 0.177311 0.026154
vt 0.561926 0.609231
vt 0.563465 0.620000
vt 0.177311 0.026154
vt 0.561926 0.609231
vt 0.563465 0.620000
vt 0.561926 0.609231
vt 0.177311 0.026154
vt 0.563465 0.620000
vt 0.832695 0.023077
vt 0.563465 0.620000
vt 0.832695 0.023077
vt 0.563465 0.620000
vt 0.832695 0.023077
vt 0.563465 0.620000
vt 0.832695 0.023077
vt 0.563465 0.620000
vt 0.832695 0.023077
vt 0.563465 0.620000
vt 0.832695 0.023077
vt 0.563465 0.620000
vt 0.832695 0.023077
vt 0.563465 0.620000
vt 0.832695 0.023077
vt 0.563465 0.620000
vt 0.563465 0.620000
vt 0.563465 0.620000
vt 0.563465 0.620000
vt 0.563465 0.620000
vt 0.563465 0.620000
vt 0.563465 0.620000
vt 0.563465 0.620000
vt 0.563465 0.620000
vt 0.563465 0.620000
vt 0.563465 0.620000
vt 0.563465 0.620000
vt 0.563465 0.620000
vt 0.563465 0.620000
vt 0.563465 0.620000
vt 0.563465 0.620000
vt 0.563465 0.620000
vt 0.563465 0.620000
vt 0.563465 0.620000
vt 0.563465 0.620000
vt 0.563465 0.620000
vt 0.563465 0.620000
vt 0.563465 0.620000
vt 0.563465 0.620000
vt 0.563465 0.620000
vt 0.563465 0.620000
vt 0.563465 0.620000
vt 0.563465 0.620000
vt 0.563465 0.620000
vt 0.563465 0.620000
vt 0.563465 0.620000
vt 0.563465 0.620000
vt 0.563465 0.620000
vt 0.572696 0.612308
vt 0.563465 0.620000
vt 0.563465 0.620000
vt 0.572696 0.612308
vt 0.563465 0.620000
vt 0.563465 0.620000
vt 0.563465 0.620000
vt 0.563465 0.620000
vt 0.563465 0.620000
vt 0.563465 0.620000
vt 0.563465 0.620000
vt 0.563465 0.620000
vt 0.563465 0.620000
vt 0.572696 0.612308
vt 0.563465 0.620000
s 0
usemtl Material
f 1/1/1 2/2/1 4/5/1 3/4/1
f 3/4/2 4/5/2 6/8/2 5/7/2
f 5/7/3 6/8/3 8/11/3 7/10/3
f 7/10/4 8/11/4 10/14/4 9/13/4
f 9/13/5 10/14/5 12/17/5 11/16/5
f 11/16/6 12/17/6 14/20/6 13/19/6
f 22/40/7 23/43/7 47/109/7 46/107/7
f 13/19/8 14/20/8 16/23/8 15/22/8
f 15/22/9 16/23/9 2/2/9 1/1/9
f 10/15/10 8/12/10 28/58/10 29/61/10
f 14/21/11 12/18/11 30/64/11 31/67/11
f 8/12/12 6/9/12 27/55/12 28/58/12
f 4/6/13 2/3/13 25/49/13 26/52/13
f 2/3/14 16/24/14 32/70/14 25/49/14
f 12/18/15 10/15/15 29/61/15 30/64/15
f 6/9/16 4/6/16 26/52/16 27/55/16
f 16/24/17 14/21/17 31/67/17 32/70/17
f 25/50/18 32/71/18 40/95/18 33/74/18
f 39/91/19 38/88/19 19/31/19 18/28/19
f 26/53/20 25/51/20 33/73/20 34/76/20
f 28/59/21 27/56/21 35/79/21 36/82/21
f 31/68/22 30/65/22 38/88/22 39/91/22
f 29/62/23 28/60/23 36/83/23 37/86/23
f 32/72/24 31/69/24 39/92/24 40/94/24
f 27/57/25 26/54/25 34/77/25 35/80/25
f 30/66/26 29/63/26 37/85/26 38/89/26
f 37/86/19 36/83/19 21/37/19 20/34/19
f 35/80/19 34/77/19 23/44/19 22/41/19
f 33/74/19 40/95/19 17/25/19 24/46/19
f 47/109/19 48/111/19 41/97/19 42/99/19 43/101/19 44/103/19 45/105/19 46/107/19
f 20/35/27 21/38/27 45/105/27 44/103/27
f 18/29/28 19/32/28 43/101/28 42/99/28
f 24/47/29 17/26/29 41/97/29 48/111/29
f 63/127/30 71/135/30 87/153/30 81/146/30
f 53/117/31 54/118/31 68/132/31 65/129/31
f 44/104/32 43/102/32 56/120/32 55/119/32
f 41/98/33 17/27/33 40/96/33 57/121/33
f 36/84/34 35/81/34 52/116/34 51/115/34
f 38/90/35 37/87/35 54/118/35 53/117/35
f 45/106/36 21/39/36 36/84/36 51/115/36
f 22/42/37 46/108/37 52/116/37 35/81/37
f 43/102/38 19/33/38 38/90/38 53/117/38
f 40/96/39 39/93/39 58/122/39 57/121/39
f 20/36/40 44/104/40 54/118/40 37/87/40
f 47/110/41 61/125/41 71/135/41 63/127/41
f 34/78/42 33/75/42 62/126/42 61/125/42
f 18/30/43 42/100/43 58/122/43 39/93/43
f 47/110/44 23/45/44 34/78/44 61/125/44
f 24/48/45 48/112/45 62/126/45 33/75/45
f 54/118/46 44/104/46 55/119/46 68/132/46
f 59/123/47 60/124/47 75/139/47 77/141/47
f 71/135/48 72/136/48 88/154/48 87/153/48
f 65/129/49 68/132/49 84/150/49 80/144/49
f 58/122/50 42/100/50 50/114/50 70/134/50
f 62/126/51 48/112/51 64/128/51 72/136/51
f 46/108/52 45/106/52 60/124/52 59/123/52
f 45/106/53 51/115/53 66/130/53 60/124/53
f 61/125/54 62/126/54 72/136/54 71/135/54
f 57/121/55 58/122/55 70/134/55 69/133/55
f 52/116/56 46/108/56 59/123/56 67/131/56
f 48/112/57 47/110/57 63/127/57 64/128/57
f 42/100/58 41/98/58 49/113/58 50/114/58
f 43/102/59 53/117/59 65/129/59 56/120/59
f 51/115/60 52/116/60 67/131/60 66/130/60
f 41/98/61 57/121/61 69/133/61 49/113/61
f 80/144/62 84/150/62 91/157/62
f 88/154/63 82/147/63 92/159/63
f 73/137/64 74/138/64 89/155/64
f 76/140/65 78/142/65 90/156/65
f 72/136/66 64/128/66 82/147/66 88/154/66
f 67/131/67 59/123/67 77/141/67 78/142/67
f 56/120/68 65/129/68 80/144/68 79/143/68
f 50/114/69 49/113/69 85/151/69 86/152/69
f 55/119/70 56/120/70 79/143/70 83/149/70
f 69/133/47 70/134/47 74/138/47 73/137/47
f 49/113/71 69/133/71 73/137/71 85/151/71
f 68/132/72 55/119/72 83/149/72 84/150/72
f 60/124/73 66/130/73 76/140/73 75/139/73
f 66/130/69 67/131/69 78/142/69 76/140/69
f 70/134/74 50/114/74 86/152/74 74/138/74
f 64/128/75 63/127/75 81/146/75 82/147/75
f 75/139/76 76/140/76 90/156/76
f 86/152/77 85/151/77 89/155/77
f 77/141/78 75/139/78 90/156/78
f 84/150/79 83/149/79 91/157/79
f 78/142/80 77/141/80 90/156/80
f 85/151/81 73/137/81 89/155/81
f 79/143/82 80/144/82 91/157/82
f 74/138/83 86/152/83 89/155/83
f 82/148/84 81/145/84 92/158/84
f 87/153/85 88/154/85 92/159/85
f 83/149/86 79/143/86 91/157/86
f 81/146/87 87/153/87 92/159/87
