# Blender 3.5.1
# www.blender.org
mtllib Ice.mtl
o Cube
v -0.482791 0.432010 0.482791
v -0.482791 0.517209 0.567990
v -0.567990 0.517209 0.482791
v -0.482791 1.482791 0.567990
v -0.482791 1.567990 0.482791
v -0.567990 1.482791 0.482791
v -0.482791 0.432010 -0.482791
v -0.567990 0.517209 -0.482791
v -0.482791 0.517209 -0.567990
v -0.482791 1.567990 -0.482791
v -0.482791 1.482791 -0.567990
v -0.567990 1.482791 -0.482791
v 0.482791 0.432010 0.482791
v 0.567990 0.517209 0.482791
v 0.482791 0.517209 0.567990
v 0.482791 1.567990 0.482791
v 0.482791 1.482791 0.567990
v 0.567990 1.482791 0.482791
v 0.482791 0.432010 -0.482791
v 0.482791 0.517209 -0.567990
v 0.567990 0.517209 -0.482791
v 0.482791 1.567990 -0.482791
v 0.567990 1.482791 -0.482791
v 0.482791 1.482791 -0.567990
vn -0.0000 -0.0000 1.0000
vn 1.0000 -0.0000 -0.0000
vn -0.0000 1.0000 -0.0000
vn -1.0000 -0.0000 -0.0000
vn -0.0000 -0.0000 -1.0000
vn -0.5774 -0.5774 0.5774
vn -0.5774 0.5774 0.5774
vn -0.5774 -0.5774 -0.5774
vn -0.5774 0.5774 -0.5774
vn 0.5774 -0.5774 0.5774
vn 0.5774 0.5774 0.5774
vn 0.5774 -0.5774 -0.5774
vn 0.5774 0.5774 -0.5774
vn -0.7071 -0.7071 -0.0000
vn -0.7071 -0.0000 0.7071
vn -0.7071 0.7071 -0.0000
vn -0.7071 -0.0000 -0.7071
vn -0.0000 -0.7071 -0.7071
vn -0.0000 0.7071 -0.7071
vn 0.7071 -0.0000 -0.7071
vn 0.7071 -0.7071 -0.0000
vn 0.7071 0.7071 -0.0000
vn 0.7071 -0.0000 0.7071
vn -0.0000 -0.7071 0.7071
vn -0.0000 0.7071 0.7071
vn -0.0000 -1.0000 -0.0000
vt 0.565003 0.580000
vt 0.565003 0.580000
vt 0.565003 0.580000
vt 0.565003 0.580000
vt 0.565003 0.580000
vt 0.565003 0.580000
vt 0.565003 0.580000
vt 0.565003 0.580000
vt 0.565003 0.580000
vt 0.565003 0.580000
vt 0.565003 0.580000
vt 0.565003 0.580000
vt 0.565003 0.580000
vt 0.565003 0.580000
vt 0.565003 0.580000
vt 0.565003 0.580000
vt 0.565003 0.580000
vt 0.565003 0.580000
vt 0.565003 0.580000
vt 0.565003 0.580000
vt 0.565003 0.580000
vt 0.565003 0.580000
vt 0.565003 0.580000
vt 0.565003 0.580000
s 0
usemtl Material
f 15/15/1 17/17/1 4/4/1 2/2/1
f 21/21/2 23/23/2 18/18/2 14/14/2
f 22/22/3 10/10/3 5/5/3 16/16/3
f 3/3/4 6/6/4 12/12/4 8/8/4
f 9/9/5 11/11/5 24/24/5 20/20/5
f 1/1/6 2/2/6 3/3/6
f 4/4/7 5/5/7 6/6/7
f 7/7/8 8/8/8 9/9/8
f 10/10/9 11/11/9 12/12/9
f 13/13/10 14/14/10 15/15/10
f 16/16/11 17/17/11 18/18/11
f 19/19/12 20/20/12 21/21/12
f 22/22/13 23/23/13 24/24/13
f 7/7/14 1/1/14 3/3/14 8/8/14
f 2/2/15 4/4/15 6/6/15 3/3/15
f 5/5/16 10/10/16 12/12/16 6/6/16
f 11/11/17 9/9/17 8/8/17 12/12/17
f 19/19/18 7/7/18 9/9/18 20/20/18
f 10/10/19 22/22/19 24/24/19 11/11/19
f 23/23/20 21/21/20 20/20/20 24/24/20
f 13/13/21 19/19/21 21/21/21 14/14/21
f 22/22/22 16/16/22 18/18/22 23/23/22
f 17/17/23 15/15/23 14/14/23 18/18/23
f 1/1/24 13/13/24 15/15/24 2/2/24
f 16/16/25 5/5/25 4/4/25 17/17/25
f 7/7/26 19/19/26 13/13/26 1/1/26
